<svg width="30" height="16" viewBox="0 0 30 16" fill="none" xmlns="http://www.w3.org/2000/svg">
<path d="M4 12L10.5 5.5M20.5 9.5L26 4L20.5 9.5ZM13.5 5.5L17.5 9.5L13.5 5.5Z" stroke="#006AFF" stroke-width="1.5" stroke-linecap="round" stroke-linejoin="round"/>
<path d="M27.5 4C28.3284 4 29 3.32843 29 2.5C29 1.67157 28.3284 1 27.5 1C26.6716 1 26 1.67157 26 2.5C26 3.32843 26.6716 4 27.5 4Z" stroke="#006AFF" stroke-width="1.5" stroke-linecap="round" stroke-linejoin="round"/>
<path d="M19 12.5C19.8284 12.5 20.5 11.8284 20.5 11C20.5 10.1716 19.8284 9.5 19 9.5C18.1716 9.5 17.5 10.1716 17.5 11C17.5 11.8284 18.1716 12.5 19 12.5Z" stroke="#006AFF" stroke-width="1.5" stroke-linecap="round" stroke-linejoin="round"/>
<path d="M12 5.5C12.8284 5.5 13.5 4.82843 13.5 4C13.5 3.17157 12.8284 2.5 12 2.5C11.1716 2.5 10.5 3.17157 10.5 4C10.5 4.82843 11.1716 5.5 12 5.5Z" stroke="#006AFF" stroke-width="1.5" stroke-linecap="round" stroke-linejoin="round"/>
<path d="M2.5 15C3.32843 15 4 14.3284 4 13.5C4 12.6716 3.32843 12 2.5 12C1.67157 12 1 12.6716 1 13.5C1 14.3284 1.67157 15 2.5 15Z" stroke="#006AFF" stroke-width="1.5" stroke-linecap="round" stroke-linejoin="round"/>
</svg>
