<svg width="178" height="31" viewBox="0 0 178 31" fill="none" xmlns="http://www.w3.org/2000/svg">
<path d="M9.63701 9.86945C12.5168 9.86945 14.9175 11.3545 16.0356 12.9593V10.2703H20.434V30.3317H17.4468C16.6675 30.3317 16.0356 29.6988 16.0356 28.916V27.6454C14.9175 29.2489 12.5168 30.7328 9.63701 30.7328C4.16027 30.7328 0 26.0395 0 20.3017C0 14.5639 4.16027 9.86945 9.63701 9.86945ZM10.4372 13.8824C6.87756 13.8824 4.4779 16.6903 4.4779 20.3017C4.4779 23.912 6.87756 26.7216 10.4372 26.7216C13.9957 26.7216 16.3965 23.912 16.3965 20.3017C16.3965 16.6903 13.9959 13.8824 10.4372 13.8824Z" fill="#737373"/>
<path d="M25.4297 10.271H29.8292V12.9991C31.0278 10.9937 33.3083 9.87011 35.9077 9.87011C40.5457 9.87011 43.5457 13.1602 43.5457 18.2561V30.3317H40.5574C39.7783 30.3317 39.1462 29.6977 39.1462 28.916V18.9784C39.1462 15.809 37.5458 13.8831 34.9883 13.8831C32.0689 13.8831 29.8295 16.17 29.8295 20.4622V30.3317H26.8398C26.0618 30.3317 25.4297 29.6977 25.4297 28.916V10.271Z" fill="#737373"/>
<path d="M56.6623 9.86943C59.541 9.86943 61.9417 11.3544 63.0609 12.9593V0.240715H67.4582V30.3317H64.471C63.693 30.3317 63.0609 29.6988 63.0609 28.9159V27.6454C61.9417 29.2489 59.541 30.7328 56.6623 30.7328C51.1831 30.7328 47.0244 26.0395 47.0244 20.3017C47.0244 14.5639 51.1834 9.86943 56.6623 9.86943ZM57.4627 13.8824C53.9042 13.8824 51.5045 16.6903 51.5045 20.3017C51.5045 23.912 53.9042 26.7216 57.4627 26.7216C61.0199 26.7216 63.4196 23.912 63.4196 20.3017C63.4196 16.6903 61.0199 13.8824 57.4627 13.8824Z" fill="#737373"/>
<path d="M72.4551 10.271H76.8535V13.8419C77.6129 11.5549 79.8525 10.0706 82.1327 10.0706C82.6912 10.0706 83.253 10.1111 83.8525 10.2311V14.7645C83.0907 14.5236 82.453 14.4035 81.6539 14.4035C79.134 14.4035 76.8537 16.531 76.8537 20.5431V30.3317H73.8654C73.0875 30.3317 72.4553 29.6977 72.4553 28.916V10.271H72.4551Z" fill="#737373"/>
<path d="M95.7125 30.7328C89.7954 30.7328 85.2358 26.1179 85.2358 20.3028C85.2358 14.4848 89.7954 9.86945 95.7125 9.86945C101.632 9.86945 106.189 14.4837 106.189 20.3028C106.189 26.1179 101.632 30.7328 95.7125 30.7328ZM95.7125 26.6419C99.2316 26.6419 101.712 23.8721 101.712 20.3028C101.712 16.7326 99.2313 13.9628 95.7125 13.9628C92.1542 13.9628 89.6751 16.7326 89.6751 20.3028C89.6751 23.8721 92.1542 26.6419 95.7125 26.6419Z" fill="#737373"/>
<path d="M111.953 5.89816C110.354 5.89816 108.994 4.5755 108.994 2.92859C108.994 1.32377 110.354 0 111.953 0C113.592 0 114.873 1.32399 114.873 2.92859C114.873 4.5755 113.592 5.89816 111.953 5.89816ZM109.756 10.2703H114.153V30.3317H111.166C110.387 30.3317 109.756 29.6963 109.756 28.916V10.2703Z" fill="#737373"/>
<path d="M127.405 9.86943C130.284 9.86943 132.684 11.3544 133.804 12.9593V0.240715H138.203V30.3317H135.216C134.435 30.3317 133.804 29.6988 133.804 28.9159V27.6454C132.684 29.2489 130.284 30.7328 127.405 30.7328C121.928 30.7328 117.769 26.0395 117.769 20.3017C117.769 14.5639 121.928 9.86943 127.405 9.86943ZM128.205 13.8824C124.648 13.8824 122.248 16.6903 122.248 20.3017C122.248 23.912 124.648 26.7216 128.205 26.7216C131.765 26.7216 134.164 23.912 134.164 20.3017C134.164 16.6903 131.765 13.8824 128.205 13.8824Z" fill="#737373"/>
<path d="M145.85 12.8228H141.546V10.1608H145.85V4.55145H148.665V10.1608H154.536V12.8228H148.665V24.4839C148.665 26.9444 149.751 27.9125 152.002 27.9125C152.806 27.9125 153.893 27.7508 154.536 27.4695V30.0108C153.61 30.3743 152.646 30.5357 151.56 30.5357C148.142 30.5357 145.85 28.5572 145.85 24.7242V12.8228Z" fill="#737373"/>
<path d="M177.418 10.1601L168.009 30.3342H165.797L156.387 10.1601H159.524L166.883 26.1778L174.241 10.1601H177.418Z" fill="#737373"/>
</svg>
