<svg width="83" height="31" viewBox="0 0 83 31" fill="none" xmlns="http://www.w3.org/2000/svg">
<path d="M17.387 4.97352C18.5595 3.58393 19.1405 1.80174 19.0084 0C17.2114 0.170744 15.5526 1.02365 14.3836 2.37793C13.8015 3.02662 13.3553 3.78215 13.0707 4.60112C12.7862 5.42009 12.6688 6.28634 12.7253 7.15011C13.6205 7.16738 14.5075 6.97977 15.3165 6.60206C16.1254 6.22434 16.8342 5.66685 17.387 4.97352ZM18.8979 7.47841C16.3183 7.33149 14.1441 8.92947 12.9096 8.92947C11.6751 8.92947 9.7957 7.55822 7.7689 7.5945C6.44179 7.63131 5.14775 8.01035 4.01607 8.69373C2.8844 9.37711 1.95474 10.3409 1.31999 11.4888C-1.44383 16.2047 0.582971 23.2297 3.27309 27.0696C4.58129 28.8943 6.14746 31.0691 8.22953 30.9983C10.3116 30.9276 10.9565 29.7286 13.3334 29.7286C15.7103 29.7286 16.4104 30.9983 18.4741 30.953C20.5377 30.9076 21.9749 29.1246 23.2647 27.1439C24.195 25.7911 24.9212 24.3125 25.4205 22.7545C24.1815 22.2145 23.1275 21.3335 22.3854 20.2174C21.6433 19.1014 21.2448 17.798 21.2379 16.4641C21.2532 15.2806 21.5698 14.1198 22.1589 13.088C22.748 12.0562 23.5907 11.1864 24.6098 10.5583C23.9623 9.64693 23.1102 8.89468 22.1196 8.35993C21.129 7.82518 20.0266 7.52229 18.8979 7.47478V7.47841ZM35.3518 3.81811V8.99659H39.5528V12.4157H35.3518V24.6681C35.3518 26.4964 36.1809 27.4287 38.0235 27.4287C38.5288 27.4197 39.0331 27.3834 39.5344 27.3199V30.7661C38.7121 30.8972 37.8798 30.9579 37.0469 30.9475C32.6985 30.9475 31.0218 29.2843 31.0218 25.1143V12.4973H27.7237V9.06914H30.9297V3.82174L35.3518 3.81811ZM54.2379 30.7589H49.6315L41.8928 9.06914H46.4808L51.9163 26.4964H52.0268L57.4623 9.06914H61.9581L54.2379 30.7589ZM74.469 30.7589H70.4891V21.8711H61.9397V17.9569H70.4707V9.06914H74.4506V17.9569H83V21.8711H74.469V30.7589Z" fill="#737373"/>
</svg>
