<svg width="132" height="30" viewBox="0 0 132 30" fill="none" xmlns="http://www.w3.org/2000/svg">
<path d="M47.4817 23.1145H47.4214L43.7254 7.54821H39.3777L35.6968 23.1145H35.636L32.2128 7.54821H27.638L33.3941 29.3416H37.7111L41.5131 14.445H41.589L45.391 29.3416H49.7387L55.4797 7.54821H50.9049L47.4817 23.1145ZM102.12 7.19679C96.6668 7.19679 93.4099 10.9168 93.4099 17.1595V19.7946C93.4099 26.1011 96.6512 29.7096 102.104 29.7096C107.572 29.7096 110.3 26.197 110.3 22.2686V21.87H106.195C106.195 24.1211 105.134 25.8771 102.18 25.8771C99.2111 25.8771 97.7571 23.9454 97.7571 19.7946V17.1595C97.7571 13.057 99.2262 10.9971 102.15 10.9971C104.891 10.9971 106.194 12.9129 106.194 15.0686H110.299V14.8446C110.3 10.5975 107.24 7.19679 102.12 7.19679ZM62.4024 7.54821L55.7374 29.3416H60.0243L61.5215 23.8495H68.0628L69.5366 29.3416H74.1265L67.4771 7.54821H62.4024ZM62.4362 20.497L64.796 11.843H64.8413L67.1632 20.497H62.4362ZM127.598 7.54821V16.298H119.146V7.54821H114.859V29.3416H119.146V20.0496H127.598V29.3421H131.9V7.54821H127.598ZM74.0511 11.3159H80.2005V29.3416H84.4724V11.3159H90.6374V7.54821H74.0511V11.3159ZM19.6011 15.7923C19.5673 12.0321 22.514 10.223 22.6486 10.1357C20.9757 7.53964 18.3918 7.25304 17.4818 7.18125C15.1589 7.00125 13.1898 8.54946 12.0901 8.54946C10.9749 8.54946 9.25523 7.22036 7.43165 7.25625C5.03798 7.29429 2.8314 8.72304 1.59767 10.9837C-0.889023 15.5346 0.962615 22.2745 3.38435 25.9645C4.56923 27.7698 5.98173 29.8018 7.83805 29.7273C9.62472 29.6534 10.2998 28.5086 12.4596 28.5086C14.6179 28.5086 15.2269 29.7273 17.116 29.6893C19.0383 29.6539 20.257 27.8507 21.4325 26.0346C22.7941 23.9421 23.3532 21.9161 23.3865 21.8062C23.3434 21.7912 19.6375 20.2923 19.6011 15.7923ZM16.048 4.74429C17.0344 3.48911 17.6986 1.73786 17.5156 0C16.0958 0.0583929 14.3798 0.996964 13.3613 2.25054C12.4497 3.36321 11.6484 5.14393 11.8656 6.85018C13.4486 6.97821 15.0627 6.00107 16.048 4.74429Z" fill="#737373"/>
</svg>
