<svg width="97" height="26" viewBox="0 0 97 26" fill="none" xmlns="http://www.w3.org/2000/svg">
<path fill-rule="evenodd" clip-rule="evenodd" d="M52.0818 10.4996C48.8522 10.5113 47.625 14.1814 47.6421 16.6594C47.658 19.0173 48.8324 22.6795 52.1095 22.6938C55.2862 22.7069 56.6854 18.9637 56.6444 16.2507C56.6021 13.5716 55.1844 10.4917 52.0818 10.4996ZM60.8407 16.4244C60.8407 21.6689 57.7183 25.6719 52.0857 25.6719C46.6516 25.6719 43.5371 21.7943 43.5371 16.6933C43.5371 11.655 46.805 7.48888 52.0064 7.45885C57.5688 7.42621 60.8407 11.1485 60.8407 16.4244Z" fill="#737373"/>
<path fill-rule="evenodd" clip-rule="evenodd" d="M19.1835 5.38297C17.5727 4.04474 14.7002 4.03038 12.8183 4.41031V12.8745C15.6101 13.3419 18.7061 12.9711 19.9188 10.5962C20.7559 8.95378 20.6462 6.59848 19.1835 5.38297ZM19.2152 15.6175C17.3558 16.2364 14.4595 16.4139 12.8183 16.0288V25.2998H8.82568V1.48969C11.9269 1.02098 15.2755 0.754641 18.4469 1.29907C22.0811 1.92315 24.5198 4.43903 24.5145 8.19131C24.5092 11.642 22.7 14.4608 19.2152 15.6175Z" fill="#737373"/>
<path fill-rule="evenodd" clip-rule="evenodd" d="M5.35785 7.83357V25.2998H1.36523V7.83357H5.35785Z" fill="#737373"/>
<path fill-rule="evenodd" clip-rule="evenodd" d="M5.342 4.29801C4.8659 4.89597 4.12133 5.21584 3.37677 5.23412C2.58459 5.2524 1.79242 4.926 1.3269 4.22751C0.770125 3.39323 0.734417 2.16989 1.3626 1.36564C1.82416 0.775515 2.5555 0.476534 3.2961 0.463478C4.0605 0.449116 4.83416 0.737653 5.3301 1.31603C6.03499 2.13464 6.00854 3.46112 5.342 4.29801Z" fill="#737373"/>
<path fill-rule="evenodd" clip-rule="evenodd" d="M92.2633 14.7323C92.2633 13.5625 91.8203 11.9749 90.8178 11.1341C89.502 10.0309 87.427 10.1314 86.1005 11.2033C85.106 12.0063 84.3984 13.4372 84.4209 14.7323H92.2633ZM96.0576 17.5707H84.4209C84.4209 20.4822 86.041 22.3453 89.1912 22.5463C90.8324 22.6508 92.9127 22.297 94.4865 21.7199L95.1887 24.5217C93.693 25.3442 91.1405 25.6471 89.2295 25.6432C83.9369 25.6354 80.3701 22.4354 80.3701 16.8161C80.3701 13.5952 81.5207 10.6236 83.9038 8.90416C86.525 7.01105 90.8443 6.88702 93.3901 8.98511C95.4201 10.6589 96.1766 13.4881 96.0946 16.2534L96.0576 17.5707Z" fill="#737373"/>
<path fill-rule="evenodd" clip-rule="evenodd" d="M37.4904 14.9647C37.4904 12.4554 36.193 10.792 34.0559 10.792C32.8127 10.792 30.1572 11.4174 30.1572 15.7481V25.262H26.2161L26.1646 0H30.1572V10.3142C31.2853 8.46156 33.1315 7.54112 35.3361 7.54112C39.6223 7.54112 41.483 10.4408 41.483 14.8041V25.2998H37.4904V14.9647Z" fill="#737373"/>
<path fill-rule="evenodd" clip-rule="evenodd" d="M74.305 15.1149C74.305 12.6669 73.251 10.792 70.8401 10.792C69.7741 10.792 67.4095 11.437 67.0022 14.7924V25.2998H63.0096C62.9884 19.4912 63.0056 13.6422 62.8535 7.83357H66.4243C66.5142 8.71354 66.575 9.59351 66.6081 10.4735C67.8221 8.47331 69.8786 7.54111 72.1189 7.54111C76.0243 7.54111 78.2963 10.215 78.2963 14.3524V25.2998H74.3037V15.1149H74.305Z" fill="#737373"/>
</svg>
